# xmcd
#
# Track frame offsets:
#      150
#      12771
#      25451
#      43648
#      58820
#      72414
#      89962
#      107496
#      125706
#      141542
#      158444
#      173855
#      185371
#      200325
#      216780
#      230894
#      241524
#      252160
#
# Disc length: 3538 seconds
#
# Revision: 0
# Processed by: cddbd v1.5.1PL0 Copyright (c) Steve Scherf et al.
# Submitted via: SoundClick v1.0
#
DISCID=060dd012
DTITLE=Morris P. Rainville - Good Old Country Blues
DYEAR=1900
DGENRE=
TTITLE0=Good Old Country Blues
TTITLE1=Waiting Too Long
TTITLE2=The Mississauga Man
TTITLE3=She Wanted To Be The Last
TTITLE4=You Have To Go Back
TTITLE5=Clementine
TTITLE6=Would'a Been Here Much Sooner
TTITLE7=Forget The Heartaches
TTITLE8=Dealers In Heartaches
TTITLE9=I Always Look Forward To Your Loving
TTITLE10=Tell Me Where You've Been
TTITLE11=Banks Of The Ohio
TTITLE12=Born In The Country
TTITLE13=Always Hum A Song In Your Soul
TTITLE14=In My Soul
TTITLE15=The Popcorn Was Popping
TTITLE16=His Own Free Will
TTITLE17=Je Suis Allé En Ontario
EXTD=
EXTT0=
EXTT1=
EXTT2=
EXTT3=
EXTT4=
EXTT5=
EXTT6=
EXTT7=
EXTT8=
EXTT9=
EXTT10=
EXTT11=
EXTT12=
EXTT13=
EXTT14=
EXTT15=
EXTT16=
EXTT17=
PLAYORDER=
